<svg width="43" height="43" viewBox="0 0 43 43" fill="none" xmlns="http://www.w3.org/2000/svg">
<path d="M21.75 4C19.4519 4 17.1762 4.45265 15.053 5.33211C12.9298 6.21157 11.0007 7.50061 9.37563 9.12563C6.09374 12.4075 4.25 16.8587 4.25 21.5C4.25 29.235 9.2725 35.7975 16.22 38.125C17.095 38.265 17.375 37.7225 17.375 37.25C17.375 36.8475 17.375 35.745 17.375 34.2925C12.5275 35.3425 11.495 31.9475 11.495 31.9475C10.69 29.9175 9.5525 29.375 9.5525 29.375C7.96 28.29 9.675 28.325 9.675 28.325C11.425 28.4475 12.3525 30.1275 12.3525 30.1275C13.875 32.7875 16.4475 32 17.445 31.58C17.6025 30.4425 18.0575 29.6725 18.5475 29.235C14.6625 28.7975 10.585 27.2925 10.585 20.625C10.585 18.6825 11.25 17.125 12.3875 15.8825C12.2125 15.445 11.6 13.625 12.5625 11.2625C12.5625 11.2625 14.0325 10.79 17.375 13.0475C18.7575 12.6625 20.2625 12.47 21.75 12.47C23.2375 12.47 24.7425 12.6625 26.125 13.0475C29.4675 10.79 30.9375 11.2625 30.9375 11.2625C31.9 13.625 31.2875 15.445 31.1125 15.8825C32.25 17.125 32.915 18.6825 32.915 20.625C32.915 27.31 28.82 28.78 24.9175 29.2175C25.5475 29.76 26.125 30.8275 26.125 32.455C26.125 34.8 26.125 36.69 26.125 37.25C26.125 37.7225 26.405 38.2825 27.2975 38.125C34.245 35.78 39.25 29.235 39.25 21.5C39.25 19.2019 38.7974 16.9262 37.9179 14.803C37.0384 12.6798 35.7494 10.7507 34.1244 9.12563C32.4993 7.50061 30.5702 6.21157 28.447 5.33211C26.3238 4.45265 24.0481 4 21.75 4V4Z" fill="#171717"/>
</svg>
