<svg width="43" height="43" viewBox="0 0 43 43" fill="none" xmlns="http://www.w3.org/2000/svg">
<path d="M34 5.75C34.9283 5.75 35.8185 6.11875 36.4749 6.77513C37.1313 7.4315 37.5 8.32174 37.5 9.25V33.75C37.5 34.6783 37.1313 35.5685 36.4749 36.2249C35.8185 36.8813 34.9283 37.25 34 37.25H9.5C8.57174 37.25 7.6815 36.8813 7.02513 36.2249C6.36875 35.5685 6 34.6783 6 33.75V9.25C6 8.32174 6.36875 7.4315 7.02513 6.77513C7.6815 6.11875 8.57174 5.75 9.5 5.75H34ZM33.125 32.875V23.6C33.125 22.0869 32.5239 20.6359 31.454 19.566C30.3841 18.4961 28.9331 17.895 27.42 17.895C25.9325 17.895 24.2 18.805 23.36 20.17V18.2275H18.4775V32.875H23.36V24.2475C23.36 22.9 24.445 21.7975 25.7925 21.7975C26.4423 21.7975 27.0654 22.0556 27.5249 22.5151C27.9844 22.9746 28.2425 23.5977 28.2425 24.2475V32.875H33.125ZM12.79 15.48C13.5697 15.48 14.3175 15.1703 14.8689 14.6189C15.4203 14.0675 15.73 13.3197 15.73 12.54C15.73 10.9125 14.4175 9.5825 12.79 9.5825C12.0056 9.5825 11.2534 9.89409 10.6987 10.4487C10.1441 11.0034 9.8325 11.7556 9.8325 12.54C9.8325 14.1675 11.1625 15.48 12.79 15.48ZM15.2225 32.875V18.2275H10.375V32.875H15.2225Z" fill="#171717"/>
</svg>
